<svg xmlns="http://www.w3.org/2000/svg" viewBox="0 0 722.27 154.44"><defs><style>.cls-1{fill:#0057ff;}.cls-2{fill:#1b2434;}</style></defs><g id="Layer_2" data-name="Layer 2"><g id="Layer_1-2" data-name="Layer 1"><path class="cls-1" d="M173.27,21.25H63.15L75.58,36.33H141.4L131,49.39,103.57,83.7,48.81,15.09H118.4L130.83,0H16.94l17,21.24H0L43.32,75.51l44,55.14,16.91-21.08,18.16,21.68,5-17.48-14-17.5ZM86.63,104.94,59.25,70.64,31.87,36.33H45.94L93.59,96.22Z"/><path class="cls-2" d="M264.78,36.56h-26.4v72.69H220.62V36.56H194.57V22h70.21Z"/><path class="cls-2" d="M286.84,51.48A21.28,21.28,0,0,1,304,43.21q20.85,0,21.14,24.51v41.53H308v-41q0-5.57-2.37-8.24t-7.87-2.66q-7.53,0-10.9,5.87v46.08H269.73V22h17.11Z"/><path class="cls-2" d="M334.24,30.69a8.58,8.58,0,0,1,2.58-6.41,11,11,0,0,1,14,0,8.56,8.56,0,0,1,2.6,6.41,8.55,8.55,0,0,1-2.63,6.47,10.86,10.86,0,0,1-13.91,0A8.52,8.52,0,0,1,334.24,30.69Zm18.18,78.56H335.25V44.41h17.17Z"/><path class="cls-2" d="M378.62,44.41l.53,7.49q6.87-8.68,18.42-8.69,10.17,0,15.15,6.06t5.09,18.09v41.89H400.7V67.78q0-5.51-2.36-8t-7.88-2.48a11.71,11.71,0,0,0-10.83,6.23v45.72H362.52V44.41Z"/><path class="cls-2" d="M424.66,76.35q0-14.92,7-24t18.92-9.11q10.53,0,16.4,7.31l.71-6.11h15.51v62.68a28,28,0,0,1-3.82,14.8,24.67,24.67,0,0,1-10.74,9.59,37.52,37.52,0,0,1-16.23,3.29,34.89,34.89,0,0,1-13.73-2.84,24.5,24.5,0,0,1-10.13-7.34L436.14,114a20,20,0,0,0,15.51,7.25q6.81,0,10.6-3.69T466,107.15v-3.48q-5.93,6.78-15.57,6.77a22.58,22.58,0,0,1-18.68-9.13q-7.14-9.14-7.13-24.24Zm17.11,1.29q0,8.82,3.49,13.83a11.08,11.08,0,0,0,9.59,5q7.81,0,11.19-5.94V63.24Q462.61,57.3,455,57.3a11.14,11.14,0,0,0-9.68,5.1Q441.77,67.5,441.77,77.64Z"/><path class="cls-2" d="M516.7,88.09l11.9-43.68h17.88l-21.61,64.84H508.53L486.91,44.41H504.8Z"/><path class="cls-2" d="M586.59,109.25a19.29,19.29,0,0,1-1.71-5.82,20.59,20.59,0,0,1-16.17,7q-9.4,0-15.6-5.51A17.83,17.83,0,0,1,546.92,91q0-10.31,7.55-15.82t21.82-5.57h7.88V65.92a10.83,10.83,0,0,0-2.28-7.19Q579.61,56,574.69,56a10.16,10.16,0,0,0-6.78,2.09,7.17,7.17,0,0,0-2.45,5.76H548.35a17.53,17.53,0,0,1,3.43-10.43,22.75,22.75,0,0,1,9.71-7.52,35,35,0,0,1,14.09-2.73q11.83,0,18.8,6t7,16.92V94.27q.06,9.23,2.55,14v1Zm-14.15-12a14.58,14.58,0,0,0,7-1.71,11.11,11.11,0,0,0,4.74-4.58V79.77h-6.4q-12.84,0-13.68,9l-.06,1a7,7,0,0,0,2.25,5.33A8.68,8.68,0,0,0,572.44,97.2Z"/><path class="cls-2" d="M628.9,109.25H611.73V21.76H628.9Z"/><path class="cls-2" d="M657.41,109.25H640.24V21.76h17.17Z"/><path class="cls-2" d="M705,109.25a19.28,19.28,0,0,1-1.72-5.82,20.57,20.57,0,0,1-16.16,7q-9.42,0-15.61-5.51A17.82,17.82,0,0,1,665.32,91q0-10.31,7.55-15.82t21.81-5.57h7.88V65.92a10.78,10.78,0,0,0-2.28-7.19Q698,56,693.09,56a10.13,10.13,0,0,0-6.78,2.09,7.17,7.17,0,0,0-2.46,5.76H666.74a17.53,17.53,0,0,1,3.43-10.43,22.75,22.75,0,0,1,9.71-7.52A35,35,0,0,1,694,43.21q11.85,0,18.8,6t7,16.92V94.27q.06,9.23,2.54,14v1Zm-14.15-12a14.57,14.57,0,0,0,7-1.71,11.11,11.11,0,0,0,4.74-4.58V79.77h-6.4q-12.84,0-13.67,9l-.06,1a7,7,0,0,0,2.25,5.33A8.67,8.67,0,0,0,690.84,97.2Z"/><path class="cls-2" d="M527.53,122.4H519V146h-5.75V122.4h-8.44v-4.72h22.75Z"/><path class="cls-2" d="M538.82,146.34A9.79,9.79,0,0,1,528.52,136v-.54a12.75,12.75,0,0,1,1.21-5.66,8.89,8.89,0,0,1,3.42-3.84,9.53,9.53,0,0,1,5.06-1.35,8.57,8.57,0,0,1,6.7,2.71q2.45,2.73,2.45,7.71v2.29H534.14a5.2,5.2,0,0,0,1.62,3.3,4.85,4.85,0,0,0,3.42,1.25,6,6,0,0,0,5-2.35l2.73,3.08a8.37,8.37,0,0,1-3.38,2.79A10.91,10.91,0,0,1,538.82,146.34Zm-.63-17.26a3.46,3.46,0,0,0-2.68,1.13,5.92,5.92,0,0,0-1.31,3.24h7.71V133a4.25,4.25,0,0,0-1-2.9A3.56,3.56,0,0,0,538.19,129.08Z"/><path class="cls-2" d="M558,141.82a3.61,3.61,0,0,0,2.49-.86,3,3,0,0,0,1-2.27h5.2a7.24,7.24,0,0,1-1.15,3.91,7.61,7.61,0,0,1-3.1,2.76,9.65,9.65,0,0,1-4.35,1,9,9,0,0,1-7-2.86q-2.56-2.86-2.57-7.92v-.36a11.3,11.3,0,0,1,2.55-7.75,8.86,8.86,0,0,1,7-2.89,8.65,8.65,0,0,1,6.24,2.24,8,8,0,0,1,2.39,6h-5.2a3.94,3.94,0,0,0-1-2.67,3.31,3.31,0,0,0-2.53-1,3.34,3.34,0,0,0-2.93,1.43,8.36,8.36,0,0,0-1,4.64v.58a8.51,8.51,0,0,0,1,4.67A3.4,3.4,0,0,0,558,141.82Z"/><path class="cls-2" d="M574.05,127.24a6.86,6.86,0,0,1,5.54-2.68q6.75,0,6.85,7.94V146h-5.55v-13.3a4,4,0,0,0-.76-2.67,3.3,3.3,0,0,0-2.55-.86,3.74,3.74,0,0,0-3.53,1.9V146H568.5V116.13h5.55Z"/><path class="cls-2" d="M594.55,124.94l.17,2.43a7.22,7.22,0,0,1,6-2.81,6,6,0,0,1,4.92,2c1.07,1.3,1.62,3.26,1.65,5.86V146H601.7V132.52a3.71,3.71,0,0,0-.77-2.6,3.43,3.43,0,0,0-2.55-.8,3.8,3.8,0,0,0-3.51,2V146h-5.54v-21Z"/><path class="cls-2" d="M609.41,135.25a12.62,12.62,0,0,1,1.18-5.57A8.8,8.8,0,0,1,614,125.9a9.84,9.84,0,0,1,5.19-1.34,9.37,9.37,0,0,1,6.86,2.6,10.48,10.48,0,0,1,3,7.07l0,1.43a11.07,11.07,0,0,1-2.67,7.76,10.25,10.25,0,0,1-14.32,0,11.26,11.26,0,0,1-2.67-7.92Zm5.54.4a7.92,7.92,0,0,0,1.11,4.58,4,4,0,0,0,6.33,0,8.62,8.62,0,0,0,1.14-5,7.83,7.83,0,0,0-1.14-4.55,3.66,3.66,0,0,0-3.18-1.61,3.6,3.6,0,0,0-3.15,1.6A8.85,8.85,0,0,0,615,135.65Z"/><path class="cls-2" d="M637.16,146h-5.57V116.13h5.57Z"/><path class="cls-2" d="M639.68,135.25a12.63,12.63,0,0,1,1.19-5.57,8.72,8.72,0,0,1,3.42-3.78,9.84,9.84,0,0,1,5.19-1.34,9.37,9.37,0,0,1,6.86,2.6,10.53,10.53,0,0,1,3,7.07l0,1.43a11.06,11.06,0,0,1-2.66,7.76,10.25,10.25,0,0,1-14.32,0,11.22,11.22,0,0,1-2.68-7.92Zm5.55.4a7.92,7.92,0,0,0,1.11,4.58,4,4,0,0,0,6.33,0,8.7,8.7,0,0,0,1.13-5,7.91,7.91,0,0,0-1.13-4.55,3.69,3.69,0,0,0-3.19-1.61,3.6,3.6,0,0,0-3.14,1.6A8.85,8.85,0,0,0,645.23,135.65Z"/><path class="cls-2" d="M660.78,135.29a12.38,12.38,0,0,1,2.27-7.78,7.32,7.32,0,0,1,6.13-3,6.44,6.44,0,0,1,5.31,2.36l.23-2h5v20.31a9,9,0,0,1-1.24,4.8,8,8,0,0,1-3.48,3.11,12.16,12.16,0,0,1-5.26,1.06,11.19,11.19,0,0,1-4.45-.92,7.89,7.89,0,0,1-3.28-2.38l2.46-3.41a6.46,6.46,0,0,0,5,2.34,4.72,4.72,0,0,0,3.44-1.19,4.5,4.5,0,0,0,1.23-3.39v-1.12a6.4,6.4,0,0,1-5.05,2.19,7.32,7.32,0,0,1-6-3,12.4,12.4,0,0,1-2.31-7.85Zm5.54.42a7.75,7.75,0,0,0,1.13,4.48,3.58,3.58,0,0,0,3.11,1.63,3.84,3.84,0,0,0,3.63-1.93V131a3.84,3.84,0,0,0-3.59-1.92,3.62,3.62,0,0,0-3.14,1.65A8.73,8.73,0,0,0,666.32,135.71Z"/><path class="cls-2" d="M690.58,138l3.84-13.07h5.94L692,149.21l-.46,1.11a6.34,6.34,0,0,1-6.14,4.12,8.9,8.9,0,0,1-2.46-.37v-4.25l.85,0a4.55,4.55,0,0,0,2.35-.49,3.19,3.19,0,0,0,1.22-1.61L688,146l-7.27-21.07h6Z"/></g></g></svg>